# xmcd
#
# Track frame offsets: 
#        150
#        19063
#        39517
#        50005
#        67581
#
# Disc length: 1140 seconds
#
# Revision: 0
# Processed by: cddbd v1.5.2PL0 Copyright (c) Steve Scherf et al.
# Submitted via: ExactAudioCopy v0.95a3
#
DISCID=36047205
DTITLE=Cologne Blues Club - Our Streets
DYEAR=2011
DGENRE=Blues
TTITLE0=Back for Blues
TTITLE1=Some Change
TTITLE2=Let us roll
TTITLE3=Desparation
TTITLE4=Gotta get it worked on
EXTD=
EXTT0=
EXTT1=
EXTT2=
EXTT3=
EXTT4=
PLAYORDER=
